<?xml version="1.0" encoding="UTF-8"?>
<svg version="1.0" viewBox="0 0 600 400" xmlns="http://www.w3.org/2000/svg" xmlns:cc="http://creativecommons.org/ns#" xmlns:dc="http://purl.org/dc/elements/1.1/" xmlns:rdf="http://www.w3.org/1999/02/22-rdf-syntax-ns#" xmlns:xlink="http://www.w3.org/1999/xlink">
<defs>
<linearGradient id="c">
<stop stop-color="#da45bc" offset="0"/>
<stop stop-color="#df50b8" offset=".38737"/>
<stop stop-color="#dc67b3" stop-opacity="0" offset="1"/>
</linearGradient>
<linearGradient id="b">
<stop stop-color="#a35315" offset="0"/>
<stop stop-color="#a35315" stop-opacity="0" offset="1"/>
</linearGradient>
<linearGradient id="a">
<stop stop-color="#787700" offset="0"/>
<stop stop-color="#545300" stop-opacity=".99608" offset=".57576"/>
<stop stop-color="#313000" stop-opacity=".98958" offset="1"/>
</linearGradient>
<clipPath id="at">
<path d="m336.69 360.62c-7.5564 0.06182-14.042 2.0755-18.438 6.5938-1.8118 1.8622-3.1443 4.0683-4.125 6.5 16.096 23.691 10.536 78.868-8.1562 97.25-1.2095 1.1895-2.4275 2.1743-3.6875 2.9688 7.714 5.0386 17.035 9.5241 22.688 12.344 0.01225-0.00822 0.01895-0.02317 0.03125-0.03125 1.0792 0.53567 2.0104 1.0321 2.7812 1.4375 11.903 6.26 39.494-15.625 49.875-27.219 0.58892-0.6577 1.2005-1.2931 1.8125-1.9062 0.61734-0.61849 1.2376-1.2076 1.875-1.7812 0.64812-0.58325 1.3034-1.1501 1.9688-1.6875 0.00851 0.01249 0.02284 0.01892 0.03125 0.03125 18.9-15.256 43.875-14.278 31.969-43.531-10.707-26.306-51.638-51.19-78.625-50.969z" fill="none" stroke="#000" stroke-dashoffset="7.8" stroke-linecap="round" stroke-linejoin="round" stroke-width="20"/>
</clipPath>
<filter id="ai" x="-.18933" y="-.17154" width="1.3787" height="1.3431">
<feGaussianBlur stdDeviation="9.1610415"/>
</filter>
<filter id="ah" x="-.21113" y="-.15687" width="1.4223" height="1.3137">
<feGaussianBlur stdDeviation="5.6238833"/>
</filter>
<filter id="ag" x="-.20142" y="-.16269" width="1.4028" height="1.3254">
<feGaussianBlur stdDeviation="10.750997"/>
</filter>
<clipPath id="as">
<path d="m383.31 455.09c-1.9684 1.5899-3.8692 3.3792-5.6562 5.375-10.172 11.36-36.855 32.569-49.125 27.531 13.122 15.882 16.184 64.219 12.781 102.06-0.11826 1.3151-0.46428 2.5158-0.96875 3.625 51.88-11.463 90.408-32.549 96.031-67.625 3.9339-24.538-38.603-49.606-52.531-70.188-0.18747-0.27702-0.34596-0.50943-0.53125-0.78125z" fill="none" stroke="#000" stroke-dashoffset="7.8" stroke-linecap="round" stroke-linejoin="round" stroke-width="20"/>
</clipPath>
<clipPath id="ar">
<path d="m418.25 422.12c2.1619 18.753-18.655 19.847-34.938 33 0.17884 0.26235 0.34891 0.48056 0.53125 0.75 10.541 15.576 37.45 33.71 48.219 52.25 1.5285 0.09321 2.9823 0.03111 4.3125-0.25 12.736-2.6914 12.01-29.72 9.0938-42.406-2.5185-10.957-8.7145-36.739-27.219-43.344z" fill="none" stroke="#000" stroke-dashoffset="7.8" stroke-linecap="round" stroke-linejoin="round" stroke-width="20"/>
</clipPath>
<filter id="af" x="-.17567" y="-.16097" width="1.3513" height="1.3219">
<feGaussianBlur stdDeviation="11.015382"/>
</filter>
<clipPath id="aq">
<path d="m247.75 459.47c-13.763 21.64-36.423 57.362-35.625 98.938 0.62557 32.591 126.27 64.122 129.19 31.656 3.8794-43.141-0.65338-99.933-18.906-106.72-5.2747-1.961-11.896-5.8094-19-10.156-15.6 11.359-35.024-7.5096-49.844-11.75-1.827-0.52278-3.8006-1.1946-5.8125-1.9688z" fill="none" stroke="#000" stroke-dashoffset="7.8" stroke-linecap="round" stroke-linejoin="round" stroke-width="20"/>
</clipPath>
<filter id="ae" x="-.17725" y="-.18283" width="1.3545" height="1.3657">
<feGaussianBlur stdDeviation="10.561513"/>
</filter>
<clipPath id="ap">
<path d="m201.02 409.91c-4.7871 21.547 31.307 45.446 52.528 51.518 15.651 4.4783 36.434 25.29 52.429 9.5606 20.96-20.612 25.39-87.512 1.3122-104.38-32.893-23.039-97.559 4.096-106.27 43.299z" fill="none" stroke="#000" stroke-dashoffset="7.8" stroke-linecap="round" stroke-linejoin="round" stroke-width="20"/>
</clipPath>
<filter id="ad" x="-.2132" y="-.15575" width="1.4264" height="1.3115">
<feGaussianBlur stdDeviation="9.7131741"/>
</filter>
<clipPath id="ao">
<path d="m196.84 418.78c-0.64122 0.03724-1.2667 0.1205-1.875 0.21875-23.019 3.7175-38.443 45.463-36.375 68.688 2.0483 23.006 24.559 63.534 47.469 60.594 2.1553-0.27658 4.3268-0.83764 6.4688-1.6875 3.0876-36.535 22.777-67.593 35.219-87.156-18.083-6.9681-42.168-23.533-46.469-40.406-0.84617-0.11986-1.6606-0.21573-2.4688-0.25-0.67053-0.02844-1.3275-0.03724-1.9688 0z" fill="none" stroke="#000" stroke-dashoffset="7.8" stroke-linecap="round" stroke-linejoin="round" stroke-width="20"/>
</clipPath>
<filter id="z" x="-.062755" y="-.48128" width="1.1255" height="1.9626">
<feGaussianBlur stdDeviation="13.409829"/>
</filter>
<filter id="ak" x="-.071913" y="-.14435" width="1.1438" height="1.2887">
<feGaussianBlur stdDeviation="9.1348075"/>
</filter>
<clipPath id="av">
<path d="m157.58 479.61c1.7027-1.519 2.6839-18.355 6.7487-24.79 73.575-12.009 197.05-23.243 255.24-32.276 13.017 3.3946 25.839 32.02 22.877 35.853-18.6 13.529-6.9007 35.129-12.122 49.497-9.4243 25.936-46.433 88.778-129.3 81.85-84.197-7.1001-107.83-62.447-143.44-110.13z" fill="none" stroke="#fff500" stroke-dashoffset="7.8" stroke-linecap="round" stroke-linejoin="round" stroke-width="2"/>
</clipPath>
<filter id="aj">
<feGaussianBlur stdDeviation="3.8309283"/>
</filter>
<clipPath id="au">
<path d="m139.4 483.65c27.097 53.069 79.224 126.28 175.86 125.22 96.275-1.0656 131.42-76.205 131.73-85.822 1.1369-34.392 4.7789-39.712 15.882-31.03l14.174-4.7304c-8.0032-17.797-22.016-38.044-34.602-28.889-18.6 13.529-6.9007 35.129-12.122 49.497-9.4243 25.936-46.433 88.778-129.3 81.85-84.197-7.1001-107.83-62.447-143.44-110.13-2.596-3.4767-9.0376-7.4972-13.132-6.0609-3.1972 1.1215-6.5915 7.084-5.0508 10.102z" fill="none" stroke="#f80000" stroke-dashoffset="7.8" stroke-linecap="round" stroke-linejoin="round" stroke-width="4"/>
</clipPath>
<linearGradient id="w" x1="616.25" x2="577.65" y1="148.24" y2="121.23" gradientTransform="translate(3.8625 14.268)" gradientUnits="userSpaceOnUse">
<stop stop-color="#6c5306" offset="0"/>
<stop stop-color="#6c5306" offset=".47734"/>
<stop stop-color="#daa70b" offset=".70359"/>
<stop stop-color="#daa70b" offset="1"/>
</linearGradient>
<radialGradient id="j" cx="688.45" cy="-3.2105" r="32.423" gradientTransform="matrix(1.279 .0049656 -.023683 .78098 -192.16 -4.1217)" gradientUnits="userSpaceOnUse">
<stop stop-color="#6f430c" offset="0"/>
<stop stop-color="#b26c14" offset="1"/>
</radialGradient>
<linearGradient id="v" x1="767.27" x2="715.08" y1="-48.74" y2="-135.49" gradientTransform="translate(3.8625 14.268)" gradientUnits="userSpaceOnUse">
<stop stop-color="#874010" offset="0"/>
<stop stop-color="#d8a233" offset="1"/>
</linearGradient>
<linearGradient id="u" x1="767.27" x2="708.97" y1="-48.74" y2="-109.75" gradientTransform="translate(3.8625 14.268)" gradientUnits="userSpaceOnUse">
<stop stop-color="#d1a00c" offset="0"/>
<stop stop-color="#f6cb4a" offset="1"/>
</linearGradient>
<linearGradient id="t" x1="774.93" x2="704.5" y1="-29.955" y2="-74.96" gradientTransform="translate(3.8625 14.268)" gradientUnits="userSpaceOnUse">
<stop stop-color="#a32121" offset="0"/>
<stop stop-color="#d73737" offset="1"/>
</linearGradient>
<linearGradient id="s" x1="771.28" x2="649.75" y1="-46.968" y2="-103.77" gradientTransform="translate(3.8625 14.268)" gradientUnits="userSpaceOnUse">
<stop stop-color="#8d1d1d" offset="0"/>
<stop stop-color="#d52f2f" offset="1"/>
</linearGradient>
<linearGradient id="r" x1="672.98" x2="701.31" y1="-113.18" y2="-113.18" gradientTransform="translate(-3.1218 12.871)" gradientUnits="userSpaceOnUse" xlink:href="#b"/>
<linearGradient id="q" x1="672.98" x2="701.31" y1="-113.18" y2="-113.18" gradientTransform="matrix(1.0934 .10928 -.10793 1.1071 -59.532 -45.811)" gradientUnits="userSpaceOnUse" xlink:href="#b"/>
<linearGradient id="p" x1="672.98" x2="701.31" y1="-113.18" y2="-113.18" gradientTransform="matrix(1.0791 .2593 -.26375 1.0608 -11.274 -134.29)" gradientUnits="userSpaceOnUse" xlink:href="#b"/>
<linearGradient id="o" x1="672.98" x2="701.31" y1="-113.18" y2="-113.18" gradientTransform="matrix(1.2152 .23921 -.24724 1.1757 -128.29 -124.08)" gradientUnits="userSpaceOnUse" xlink:href="#b"/>
<linearGradient id="n" x1="672.98" x2="701.31" y1="-113.18" y2="-113.18" gradientTransform="matrix(.95586 .29383 -.29383 .95586 100.95 -157.34)" gradientUnits="userSpaceOnUse" xlink:href="#b"/>
<clipPath id="an">
<path d="m232.26 496.13c6.1514 6.2559 13.782 0.20884 11.062-6.5849-1.4266-3.5631-4.5591-4.4684-4.0954-7.2248 1.8072-10.742-6.5463-27.777-10.615-32.006 7.2958 0.54316 50.065 0.29891 82.188-9.4816 17.365 2.8254 33.29-1.5414 34.859-15.152 1.5644-13.575 9.9161-22.315 6.2612-43.003 1.1221-22.942-73.674-19.909-61.792 5.8682l4.435 16.641c-35.751-0.82343-75.889 21.262-82.97 19.641-3.2061-0.73387-3.3663-1.1166-7.0199-1.9927-9.8496-2.3618-22.493 4.3042-21.346 15.426 0.44461 4.3098 9.8269 11.949 11.598 16.753 4.6374 12.576 4.4361 22.195 8.6943 26.411 3.5172 3.4823 1.6889 7.7355 3.6373 10.92 1.6296 2.6638 4.3123 2.4661 6.2932 1.6505 4.7132-1.9406 1.6006-10.503-0.90407-11.944m11.785 10.884c4.4779 8.0312 13.572 0.04471 6.9138-8.2573m-15.516 6.4619c-1.2556 1.8602 3.194 5.1378 7.013 3.1827 3.4266-1.7541 2.6477-8.9239-0.44949-11.677" fill="none" stroke="#000" stroke-dashoffset="7.8" stroke-linecap="round" stroke-linejoin="round" stroke-width="3"/>
</clipPath>
<filter id="ac">
<feGaussianBlur stdDeviation="2.1150305"/>
</filter>
<filter id="ab">
<feGaussianBlur stdDeviation="2.0292207"/>
</filter>
<clipPath id="am">
<path d="m494.86 304.77c3.6161 3.5196 8.0952-4.4122 5.4953-7.7966-3.8265-4.981-19.093-12.163-23.511-9.8664-2.3483 1.2209 3.5534-5.2607 5.0454-7.0552-8.5265-10.591-7.302 1.4592-29.334 6.1372-5.4448 3.8558-3.4846 9.5697-8.03 8.5379-12.081-2.7425-43.266-11.227-64.941-6.2549-6.7572-7.3573-16.74-18.307-25.642-27.022 2.3283-12.166-6.1928-31.929-19.318-38.728-12.651-0.88171-20.69-10.21-32.511 2.8825-1.5776 1.7472-5.5795 7.4321-3.5171 17.688 2.5901 12.88 16.602 31.559 19.315 34.352 14.012 14.424 31.428 39.077 53.111 40.998 12.436 5.7858 65.696 1.238 77.441-3.6571 0 0 8.1938 6.0965 22.498 3.7466 5.4865-0.90132 13.458 4.7575 16.041 2.1379 1.5799-1.6022 2.7387-4.1604 2.0291-6.4792-1.2732-4.1602-14.425-6.3475-13.023-6.6562 6.3565-1.3995 13.084 6.7194 15.784 6.0154 2.9337-0.76488 4.1544-4.3506 3.7413-6.4542-0.50769-2.5855 0.41319-6.3648-18.468-10.843" fill="none" stroke="#000" stroke-dashoffset="7.8" stroke-linecap="round" stroke-linejoin="round" stroke-width="3"/>
</clipPath>
<filter id="aa">
<feGaussianBlur stdDeviation="2.4174483"/>
</filter>
<clipPath id="al">
<path d="m338.65 223.82c7.8123 13.805 19.685 37.101 21.916 49.756l29.589 5.0585s7.3009-17.893 7.9019-19.425c3.6606-9.3356 3.3599-25.305 4.774-29.632 19.05 0.8756 40.26-15.614 46.259-22.718 12.957-9.6167 16.561-20.934 20.084-32.266 1.9318-8.1402-9.8087-15.629-16.133-23.376-4.784-12.182-3.5329-24.364-3.2924-36.546l-17.121-32.266-105.69 49.058 11.71 92.358z" fill="none" stroke="#8d1d1d" stroke-dashoffset="7.8" stroke-linecap="round" stroke-linejoin="round"/>
</clipPath>
<linearGradient id="y" x1="322.35" x2="344.61" y1="271.42" y2="281.99" gradientTransform="translate(3.8625 14.268)" gradientUnits="userSpaceOnUse">
<stop stop-color="#2f55f3" offset="0"/>
<stop stop-color="#2f34f3" offset="1"/>
</linearGradient>
<radialGradient id="m" cx="352.22" cy="333.57" r="80.508" gradientTransform="matrix(.56946 1.4777 -.33823 .13034 272.84 -175.71)" gradientUnits="userSpaceOnUse" xlink:href="#c"/>
<linearGradient id="x" x1="324.43" x2="303.86" y1="361.84" y2="361.84" gradientTransform="translate(3.8625 14.268)" gradientUnits="userSpaceOnUse">
<stop stop-color="#e35bc2" offset="0"/>
<stop stop-color="#e48bc5" offset="1"/>
</linearGradient>
<radialGradient id="l" cx="353.57" cy="213.39" r="80.508" gradientTransform="matrix(.95379 1.2642 -.31369 .23667 132.12 -123.34)" gradientUnits="userSpaceOnUse" xlink:href="#c"/>
<radialGradient id="k" cx="307.87" cy="449.96" r="80.508" gradientTransform="matrix(.21141 1.0257 -.3245 .066882 362.82 30.225)" gradientUnits="userSpaceOnUse">
<stop stop-color="#da45bc" stop-opacity=".97834" offset="0"/>
<stop stop-color="#df50b8" offset=".38737"/>
<stop stop-color="#dc67b3" stop-opacity="0" offset="1"/>
</radialGradient>
<radialGradient id="i" cx="203.08" cy="483.59" r="46.671" gradientTransform="matrix(1 0 0 1.4321 3.8625 -194.7)" gradientUnits="userSpaceOnUse" xlink:href="#a"/>
<radialGradient id="h" cx="382.58" cy="524.39" r="56.05" gradientTransform="matrix(1 0 0 1.272 3.8625 -128.38)" gradientUnits="userSpaceOnUse" xlink:href="#a"/>
<radialGradient id="g" cx="277.35" cy="531.59" r="67.245" gradientTransform="matrix(1 0 0 1.1022 3.8625 -40.053)" gradientUnits="userSpaceOnUse" xlink:href="#a"/>
<radialGradient id="f" cx="360.34" cy="424.71" r="60.063" gradientTransform="matrix(1 0 0 1.1002 3.8625 -28.306)" gradientUnits="userSpaceOnUse" xlink:href="#a"/>
<radialGradient id="e" cx="262.09" cy="417.46" r="63.501" gradientTransform="matrix(1 0 0 .96563 3.8625 28.616)" gradientUnits="userSpaceOnUse" xlink:href="#a"/>
<radialGradient id="d" cx="415.28" cy="465.15" r="33.965" gradientTransform="matrix(1 0 0 1.3255 3.8625 -137.13)" gradientUnits="userSpaceOnUse" xlink:href="#a"/>
</defs>
<metadata>
<rdf:RDF>
<cc:Work rdf:about="">
<dc:format>image/svg+xml</dc:format>
<dc:type rdf:resource="http://purl.org/dc/dcmitype/StillImage"/>
</cc:Work>
</rdf:RDF>
</metadata>
<g transform="translate(122.21 -135.98)" display="none">
<path d="m-666.86 591.95c32.973 28.957 88.259 59.268 154.99 73.606 56.094 12.053 126.98 7.8803 176.62-3.1794m-7.7652-86.771c-156.91-24.998-56.461 103.7 104.46 98.504 63.119-2.0382 104.98-18.343 125.49-34.875m-58.094-26.563c-46.598 16.536 9.8566 24.966 61.742 23.877 18.765-0.39377 36.932-2.0326 49.411-4.9835 44.162-10.443 49.746-59.346 15.101-82.504-44.345-29.642-122.85 9.4022-95.961 33.056m63.391-46.299c0.91592-23.136-18.475-50.393-76.705-73.044-130.88-50.912-135.94 68.283-117.19 71.773m28.506-79.636c13.403-166.09-272.81-118.2-218.66-23.083m74.905-85.011c-7.3856-57.36-46.328-124.8-146.25-167.79-244.67-105.27-511.05 278.44-316.41 374 74.774 36.713 137.27 42.602 179.43 35.297 66.101-11.45 133.62-47.418 100.45-95.302" display="inline" fill="none" stroke="#646464" stroke-dashoffset="7.8" stroke-linecap="round" stroke-linejoin="round" stroke-width="15"/>
</g>
<g transform="translate(122.21 -135.98)" display="none">
<path d="m410.12 391.71c10.567 14.344 15.475 33.997 15.598 47.726l-41.673-8.3812-5.1219-32.594 31.197-6.7515z" display="inline" fill="#f3c29b" stroke="#000" stroke-dashoffset="7.8" stroke-linecap="round" stroke-linejoin="round" stroke-width="3"/>
</g>
<g transform="translate(122.21 -135.98)">
<g transform="matrix(-1 0 0 1 546.89 -227.84)">
<path transform="matrix(.52747 0 0 .44928 206.85 318.5)" d="m502.14 422.72a32.5 24.643 0 1 1-65 0 32.5 24.643 0 1 1 65 0z" stroke="#000" stroke-dashoffset="7.8" stroke-linecap="round" stroke-linejoin="round" stroke-width="20.542"/>
<path d="m115.61 685.09c-10.729 6.5514-34.303 16.371-29.8 25.767 11.813 24.649 83.531 21.333 121.06 21.902 45.141 0.68474 101.99-22.278 147.14-21.902 45.396 0.37789 102.25 29.196 147.14 24.479 33.442-3.5148 99.82-16.631 96.85-39.939-1.9411-15.231-46.811-17.787-68.912-18.037-24.204-0.27361-52.24 19.444-76.362 18.037-22.173-1.2937-43.198-22.119-65.187-24.479-41.041-4.4049-96.365 26.703-135.96 18.037-22.228-4.8649-42.058-17.299-65.187-19.325-28.616-2.507-49.151 2.2554-70.775 15.46z" fill="#6b6b6b" filter="url(#z)"/>
<path d="m85.685 572.16c-6.1115 13.636 5.1929 40.739 19.193 45.962 24.888 9.2845 79.297-39.396 79.297-39.396l-28.284-30.81s-61.092 3.9105-70.206 24.244z" fill="#46ad22"/>
<path d="m159.26 586.45c-6.1115 13.636-68.379 26.453-54.379 31.676 24.888 9.2845 79.297-39.396 79.297-39.396l-28.284-30.81s-13.715 0.87791-29.118 3.9646c-8.9402 11.647 35.974 26.777 32.484 34.565z" fill="#3a8f1c"/>
<path d="m86.695 571.66c11.273 2.3973 28.232 37.657 22.223 46.467-9.5652 4.5509-33.853-31.524-22.223-46.467z" fill="#417e0f"/>
<path d="m85.685 572.16c-6.1115 13.636 5.1929 40.739 19.193 45.962 24.888 9.2845 79.297-39.396 79.297-39.396l-28.284-30.81s-61.092 3.9105-70.206 24.244z" fill="none" stroke="#000" stroke-dashoffset="7.8" stroke-linecap="round" stroke-linejoin="round" stroke-width="4"/>
<path d="m86.695 571.66c11.273 2.3973 28.232 37.657 22.223 46.467" fill="none" stroke="#000" stroke-dashoffset="7.8" stroke-linecap="round" stroke-linejoin="round" stroke-width="4"/>
<path d="m518.15 567.65c20.073 6.4535 42.067 16.619 43.196 30.381 1.4254 17.374-26.424 49.054-43.846 49.733-29.364 1.1441-74.838-66.853-74.838-66.853s58.264-18.798 75.487-13.261z" fill="#46ad22"/>
<path d="m496.01 581.58c20.073 6.4535 64.287 25.799 61.718 31.093-7.9434 16.367-27.061 34.579-40.225 35.092-29.364 1.1441-74.838-66.853-74.838-66.853s36.121-4.8695 53.345 0.66779z" fill="#3a8f1c"/>
<path d="m151.85 538.83c-20.976-10.01-37.272-41.364-68.69-46.467-8.5674-1.3914-11.408-9.4874 18.183-7.0711 28.131 2.2972 53.171 31.513 75.761 25.759 10.085-2.5688 12.426 32.977 3.5355 38.386-9.901 6.0234-18.33-5.6155-28.789-10.607z" fill="#46ad22"/>
<path d="m157.21 539.9c-6.6903-4.6524-24.097-41.219-19.292-40.567 13.858 7.6128 26.887 14.85 39.189 11.716 10.085-2.5688 12.426 32.977 3.5355 38.386-9.901 6.0234-13.917-2.9186-23.432-9.5352z" fill="#3a8f1c"/>
<path d="m151.85 538.83c-20.976-10.01-37.272-41.364-68.69-46.467-8.5674-1.3914-11.408-9.4874 18.183-7.0711 28.131 2.2972 53.171 31.513 75.761 25.759 10.085-2.5688 12.426 32.977 3.5355 38.386-9.901 6.0234-18.33-5.6155-28.789-10.607z" fill="none" stroke="#000" stroke-dashoffset="7.8" stroke-linecap="round" stroke-linejoin="round" stroke-width="4"/>
<path d="m537.98 575.86c4.9703 0.80965 24.676 11.719 23.539 23.749-0.33604 5.3475-2.8241 13.594-8.1582 19.815-13.5-12.78-25.594-34.532 6.6055-21.081-16.652-11.435-21.836-18.094-21.987-22.484z" fill="#008000"/>
<path d="m642.43 488.77c-19.953 25.29-52.105 11.514-65 8.5714-20.748 36.395-41.985 48.73-75 72.857l-54.286 36.429-44.286-57.857 46.429-35.714c37.143-17.857 30.363 3.6597 63.332-37.842-55.268-123.34 106.21-124.54 107.38-44.301 22.915-2.3074 48.969 26.106 33.571 57.857-55.314 26.114-71.523-18.394-70.051-39.842" fill="#46ad22"/>
<path d="m635.73 494.36c-7.9916 11.562-37.799 8.6163-58.134 3.1676-17.224 27.907-52.224 59.575-58.583 57.69 2.2581-2.703 1.2432 0.3218-0.3363-4.376 7.8075-1.062 44.211-39.784 51.289-54.796 3.7539-7.9619 8.1313-5.6455 11.161-4.8085 29.331 8.1047 33.702 10.131 41.545 2.7667 4.5016 0.02361 7.6521-0.1414 13.059 0.356z" fill="#3a8f1c"/>
<path d="m587.64 390.09c-29.111-13.707-53.226-3.2011-61.88 11.473-24.444 41.451 9.6805 66.251 3.0171 74.737-25.852 32.92-28.499 35.452-62.205 58.546-11.621 7.9627 29.125 27.843 34.633 23.618 18.61-14.274 22.717-9.8834 29.522-3.6049l-23.52 16.512-103.35-22.599 46.429-35.714c37.143-17.857 29.353 3.1547 62.322-38.347-23.846-49.548-3.1887-91.868 30.318-97.736 28.873-5.0568 77.49 13.819 78.074 53.941 22.915-2.3074 48.969 26.106 33.571 57.857-3.2692 1.8748-2.9535 2.4735-10.636 3.1904 6.6853-17.824 17.61-47.36-25.362-56.706-8.3468-1.8155-0.42913-30.802-30.938-45.167z" fill="#3a8f1c"/>
<path d="m535.02 417.04c11.136-43.914 51.637-24.15 53.617-15.025" fill="none" stroke="#000" stroke-dashoffset="7.8" stroke-linecap="round" stroke-linejoin="round" stroke-width="4"/>
<path d="m636.6 494.61c-13.079 14.666-46.272 5.6816-59.167 2.7387-20.748 36.395-41.985 48.73-75 72.857l-54.286 36.429-44.286-57.857 46.429-35.714c37.143-17.857 30.363 3.6597 63.332-37.842-55.268-123.34 106.21-124.54 107.38-44.301 22.915-2.3074 48.969 26.106 33.571 57.857-17.14 13.479-73.039 4.3462-70.051-39.842" fill="none" stroke="#000" stroke-dashoffset="7.8" stroke-linecap="round" stroke-linejoin="round" stroke-width="4"/>
<path transform="matrix(.97806 -.20835 .20835 .97806 -69.98 155.76)" d="m636.9 440.21a6.566 10.607 0 1 1-13.132 0 6.566 10.607 0 1 1 13.132 0z" stroke="#000" stroke-dashoffset="7.8" stroke-linecap="round" stroke-linejoin="round" stroke-width="4"/>
<path transform="matrix(1 0 0 1.2222 17.5 -79.459)" d="m632.36 439.96a7.0711 6.8185 0 1 1-14.142 0 7.0711 6.8185 0 1 1 14.142 0z" fill="#46ad22"/>
<path d="m489.66 571.17s27.094-3.9954 30.214-2.9637c19.587 6.4751 40.371 16.449 41.468 29.817 1.4254 17.374-26.424 49.054-43.846 49.733-29.364 1.1441-74.838-66.853-74.838-66.853l47.001-9.7336z" fill="none" stroke="#000" stroke-dashoffset="7.8" stroke-linecap="round" stroke-linejoin="round" stroke-width="4"/>
<path d="m590.2 416.23c1.5746 4.9887 3.1391 7.6665 0.60265 12.09-2.5772 4.4943-9.5941 2.6911-15.168 4.4554-4.9522 1.5676-9.7213 9.3833-14.075 7.7796-5.3682-1.9776-9.4991-6.1461-11.429-11.641-3.5318-10.058-1.3716-23.217 15.402-26.718 11.355-2.3699 21.492 3.9764 24.667 14.034z" fill="#fff"/>
<path d="m586.36 427.88c0 0.96156 0.39158 2.4088-0.45929 2.7588-2.8684 1.1799-4.9777 0.81262-9.3621 0.81262-2.1837 0-4.9159 4.1595-6.5474 3.0404-2.419-1.6593-3.2741-3.6095-3.2741-6.6118 0-5.0272 4.4-9.1072 9.8214-9.1072s9.8214 4.08 9.8214 9.1072z" stroke="#000" stroke-dashoffset="7.8" stroke-linecap="round" stroke-linejoin="round" stroke-width="4"/>
<path d="m590.2 416.23c1.5746 4.9887 3.1391 7.6665 0.60265 12.09-2.5772 4.4943-9.5941 2.6911-15.168 4.4554-4.9522 1.5676-9.7213 9.3833-14.075 7.7796-5.3682-1.9776-9.4991-6.1461-11.429-11.641-3.5318-10.058-1.3716-23.217 15.402-26.718 11.355-2.3699 21.492 3.9764 24.667 14.034z" fill="none" stroke="#000" stroke-dashoffset="7.8" stroke-linecap="round" stroke-linejoin="round" stroke-width="4"/>
<path d="m181.77 527.24c-14.157 20.764-34.962 1.9351-48.622-0.61276-50.926-9.4987 162.14 227.15 392.86 51.429 16.764-12.768 10.537-40.617-15.714-15-11.187 10.917-54.653-19.53-69.626-18.632-29.052 1.7436-27.439 22.814-11.445 1.489l-247.45-18.673z" fill="#858400" fill-opacity=".99608"/>
<path d="m181.77 527.24c-7.0783 10.382-21.288 7.4273-32.701 3.2779 95.015 155.85 296.11 105.82 324.37 25.459-13.009-5.767-25.896-11.966-32.772-11.553-29.052 1.7436-27.439 22.814-11.445 1.489l-247.45-18.673z" fill="#575600" fill-opacity=".99608"/>
<path d="m181.77 527.24c-14.157 20.764-34.962 1.9351-48.622-0.61276-50.926-9.4987 162.14 227.15 392.86 51.429 16.764-12.768 10.537-40.617-15.714-15-11.187 10.917-54.653-19.53-69.626-18.632-29.052 1.7436-27.439 22.814-11.445 1.489l-247.45-18.673z" fill="none" stroke="#000" stroke-dashoffset="7.8" stroke-linecap="round" stroke-linejoin="round" stroke-width="4"/>
<path d="m224.34 614.28c13.475-7.2172 15.375-13.969 14.667-21.186" fill="none" stroke="#000" stroke-dashoffset="7.8" stroke-linecap="round" stroke-linejoin="round" stroke-width="4"/>
<path d="m272.66 632.39c10.415-5.3603 11.926-13.031 13.17-22.059" fill="none" stroke="#000" stroke-dashoffset="7.8" stroke-linecap="round" stroke-linejoin="round" stroke-width="4"/>
<path d="m330.56 642.66c10.526-9.7121 18.477-30.493 8.8132-43.717" fill="none" stroke="#000" stroke-dashoffset="7.8" stroke-linecap="round" stroke-linejoin="round" stroke-width="4"/>
<path d="m388.77 638.95c8.3104-8.126 18.035-28.914 8.5804-41.971" fill="none" stroke="#000" stroke-dashoffset="7.8" stroke-linecap="round" stroke-linejoin="round" stroke-width="4"/>
<path d="m439.44 553.47s85.081 37.317 87.683 67.932c1.7681 20.801-26.328 50.273-47.166 51.15-35.12 1.4786-89.759-79.784-89.759-79.784l49.242-39.298z" fill="#46ad22"/>
<path d="m439.44 553.47c0 0.99484 12.565 5.7688 28.186 14.035-27.329 26.972-48.302 22.128-45.053 40.764 1.3344 7.6556 32.936 36.175 51.692 46.449 19.438 10.648 35.544 2.9975 22.811 11.979-2.6905 6.1547-11.686 5.6262-17.117 5.8549-35.12 1.4786-89.759-79.784-89.759-79.784l49.242-39.298z" fill="#3a8f1c"/>
<path d="m184.45 555.49s-72.535 16.396-79.125 42.522c-4.4777 17.751 15.696 47.225 33.628 50.927 30.224 6.2402 89.079-56.366 89.079-56.366l-43.582-37.083z" fill="#46ad22"/>
<path d="m184.45 555.49s-5.1842 1.1718-12.907 3.3881c23.479 27.145 29.324 32.135 26.639 41.991-3.7389 13.722-84.938 31.797-71.27 42.158 3.9261 2.9763 8.0395 5.0859 12.041 5.9121 30.224 6.2402 89.079-56.366 89.079-56.366l-43.582-37.083z" fill="#3a8f1c"/>
<path d="m169.55 639.74c-5.0406 5.8481-29.034 18.418-50.738-6.1983 19.01-10.688 48.935-18.567 20.713 13.637 37.13-28.482 35.065-13.287 30.024-7.4387z" fill="#006500"/>
<path d="m433.51 563.13s83.699 12.956 93.236 42.163c6.4802 19.845-14.128 54.963-34.212 60.584-33.85 9.4744-105.63-57.132-105.63-57.132l46.608-45.615z" fill="none"/>
<path d="m513.4 599.06c9.7953 8.8604 15.984 17.826 13.056 31.672-2.4754 5.87-4.9008 13.374-14.239 23.21-14.168-18.606-23.277-45.588 12.613-22.233-33.473-32.702-17.935-36.807-11.43-32.649z" fill="#008000"/>
<path d="m184.45 555.49s-72.535 16.396-79.125 42.522c-4.4777 17.751 15.696 47.225 33.628 50.927 30.224 6.2402 89.079-56.366 89.079-56.366l-43.582-37.083z" fill="none" stroke="#000" stroke-dashoffset="7.8" stroke-linecap="round" stroke-linejoin="round" stroke-width="4"/>
<path d="m439.44 553.47s85.081 37.317 87.683 67.932c1.7681 20.801-26.328 50.273-47.166 51.15-35.12 1.4786-89.759-79.784-89.759-79.784l49.242-39.298z" fill="none" stroke="#000" stroke-dashoffset="7.8" stroke-linecap="round" stroke-linejoin="round" stroke-width="4"/>
<path d="m118.82 633.54c19.01-10.688 48.935-18.567 20.713 13.637 37.13-28.482 35.065-13.287 30.024-7.4387" fill="none" stroke="#000" stroke-dashoffset="7.8" stroke-linecap="round" stroke-linejoin="round" stroke-width="4"/>
<path d="m511.79 653.02c-13.283-17.297-22.853-44.663 13.038-21.308-33.473-32.702-17.935-36.807-11.43-32.649" fill="none" stroke="#000" stroke-dashoffset="7.8" stroke-linecap="round" stroke-linejoin="round" stroke-width="4"/>
<path d="m553.36 619.42c-13.5-12.78-25.594-34.532 6.6055-21.081-16.652-11.435-21.836-18.094-21.987-22.484" fill="none" stroke="#000" stroke-dashoffset="7.8" stroke-linecap="round" stroke-linejoin="round" stroke-width="4"/>
<path d="m200.71 433.05c-0.64122 0.03724-1.2667 0.1205-1.875 0.21875-23.019 3.7175-38.443 45.463-36.375 68.688 2.0483 23.006 24.559 63.534 47.469 60.594 2.1553-0.27658 4.3268-0.83764 6.4688-1.6875 3.0876-36.535 22.777-67.593 35.219-87.156-18.083-6.9681-42.168-23.533-46.469-40.406-0.84617-0.11986-1.6606-0.21573-2.4688-0.25-0.67053-0.02844-1.3275-0.03724-1.9688 0z" fill="url(#i)" stroke="#000" stroke-dashoffset="7.8" stroke-linecap="round" stroke-linejoin="round" stroke-width="4"/>
<path d="m387.17 469.36c-1.9684 1.5899-3.8692 3.3792-5.6562 5.375-10.172 11.36-36.855 32.569-49.125 27.531 13.122 15.882 16.184 64.219 12.781 102.06-0.11826 1.3151-0.46428 2.5158-0.96875 3.625 51.88-11.463 90.408-32.549 96.031-67.625 3.9339-24.538-38.603-49.606-52.531-70.188-0.18747-0.27702-0.34596-0.50943-0.53125-0.78125z" fill="url(#h)" stroke="#000" stroke-dashoffset="7.8" stroke-linecap="round" stroke-linejoin="round" stroke-width="4"/>
<path d="m251.61 473.74c-13.763 21.64-36.423 57.362-35.625 98.938 0.62557 32.591 126.27 64.122 129.19 31.656 3.8794-43.141-0.65338-99.933-18.906-106.72-5.2747-1.961-11.896-5.8094-19-10.156-15.6 11.359-35.024-7.5096-49.844-11.75-1.827-0.52278-3.8006-1.1946-5.8125-1.9688z" fill="url(#g)" stroke="#000" stroke-dashoffset="7.8" stroke-linecap="round" stroke-linejoin="round" stroke-width="4"/>
<path d="m340.55 374.89c-7.5564 0.06182-14.042 2.0755-18.438 6.5938-1.8118 1.8622-3.1443 4.0683-4.125 6.5 16.096 23.691 10.536 78.868-8.1562 97.25-1.2095 1.1895-2.4275 2.1743-3.6875 2.9688 7.714 5.0386 17.035 9.5241 22.688 12.344 0.01225-0.00822 0.01895-0.02317 0.03125-0.03125 1.0792 0.53567 2.0104 1.0321 2.7812 1.4375 11.903 6.26 39.494-15.625 49.875-27.219 0.58892-0.6577 1.2005-1.2931 1.8125-1.9062 0.61734-0.61849 1.2376-1.2076 1.875-1.7812 0.64812-0.58325 1.3034-1.1501 1.9688-1.6875 0.00851 0.01249 0.02284 0.01892 0.03125 0.03125 18.9-15.256 43.875-14.278 31.969-43.531-10.707-26.306-51.638-51.19-78.625-50.969z" fill="url(#f)" stroke="#000" stroke-dashoffset="7.8" stroke-linecap="round" stroke-linejoin="round" stroke-width="4"/>
<path d="m204.88 424.17c-4.7871 21.547 31.307 45.446 52.528 51.518 15.651 4.4783 36.434 25.29 52.429 9.5606 20.96-20.612 25.39-87.512 1.3122-104.38-32.893-23.039-97.559 4.096-106.27 43.299z" fill="url(#e)" stroke="#000" stroke-dashoffset="7.8" stroke-linecap="round" stroke-linejoin="round" stroke-width="4"/>
<path d="m422.11 436.39c2.1619 18.753-18.655 19.847-34.938 33 0.17884 0.26235 0.34891 0.48056 0.53125 0.75 10.541 15.576 37.45 33.71 48.219 52.25 1.5285 0.09321 2.9823 0.03111 4.3125-0.25 12.736-2.6914 12.01-29.72 9.0938-42.406-2.5185-10.957-8.7145-36.739-27.219-43.344z" fill="url(#d)" stroke="#000" stroke-dashoffset="7.8" stroke-linecap="round" stroke-linejoin="round" stroke-width="4"/>
<path transform="translate(3.8625 14.268)" d="m336.69 360.62c-7.5564 0.06182-14.042 2.0755-18.438 6.5938-1.8118 1.8622-3.1443 4.0683-4.125 6.5 16.096 23.691 10.536 78.868-8.1562 97.25-1.2095 1.1895-2.4275 2.1743-3.6875 2.9688 7.714 5.0386 17.035 9.5241 22.688 12.344 0.01225-0.00822 0.01895-0.02317 0.03125-0.03125 1.0792 0.53567 2.0104 1.0321 2.7812 1.4375 11.903 6.26 39.494-15.625 49.875-27.219 0.58892-0.6577 1.2005-1.2931 1.8125-1.9062 0.61734-0.61849 1.2376-1.2076 1.875-1.7812 0.64812-0.58325 1.3034-1.1501 1.9688-1.6875 0.00851 0.01249 0.02284 0.01892 0.03125 0.03125 18.9-15.256 43.875-14.278 31.969-43.531-10.707-26.306-51.638-51.19-78.625-50.969z" clip-path="url(#at)" fill="none" filter="url(#ai)" opacity=".4" stroke="#000" stroke-dashoffset="7.8" stroke-linecap="round" stroke-linejoin="round" stroke-width="20"/>
<path transform="translate(3.8625 14.268)" d="m383.31 455.09c-1.9684 1.5899-3.8692 3.3792-5.6562 5.375-10.172 11.36-36.855 32.569-49.125 27.531 13.122 15.882 16.184 64.219 12.781 102.06-0.11826 1.3151-0.46428 2.5158-0.96875 3.625 51.88-11.463 90.408-32.549 96.031-67.625 3.9339-24.538-38.603-49.606-52.531-70.188-0.18747-0.27702-0.34596-0.50943-0.53125-0.78125z" clip-path="url(#as)" fill="none" filter="url(#ag)" opacity=".4" stroke="#000" stroke-dashoffset="7.8" stroke-linecap="round" stroke-linejoin="round" stroke-width="20"/>
<path transform="translate(3.8625 14.268)" d="m418.25 422.12c2.1619 18.753-18.655 19.847-34.938 33 0.17884 0.26235 0.34891 0.48056 0.53125 0.75 10.541 15.576 37.45 33.71 48.219 52.25 1.5285 0.09321 2.9823 0.03111 4.3125-0.25 12.736-2.6914 12.01-29.72 9.0938-42.406-2.5185-10.957-8.7145-36.739-27.219-43.344z" clip-path="url(#ar)" fill="none" filter="url(#ah)" opacity=".4" stroke="#000" stroke-dashoffset="7.8" stroke-linecap="round" stroke-linejoin="round" stroke-width="20"/>
<path transform="translate(3.8625 14.268)" d="m247.75 459.47c-13.763 21.64-36.423 57.362-35.625 98.938 0.62557 32.591 126.27 64.122 129.19 31.656 3.8794-43.141-0.65338-99.933-18.906-106.72-5.2747-1.961-11.896-5.8094-19-10.156-15.6 11.359-35.024-7.5096-49.844-11.75-1.827-0.52278-3.8006-1.1946-5.8125-1.9688z" clip-path="url(#aq)" fill="none" filter="url(#af)" opacity=".4" stroke="#000" stroke-dashoffset="7.8" stroke-linecap="round" stroke-linejoin="round" stroke-width="20"/>
<path transform="translate(3.8625 14.268)" d="m201.02 409.91c-4.7871 21.547 31.307 45.446 52.528 51.518 15.651 4.4783 36.434 25.29 52.429 9.5606 20.96-20.612 25.39-87.512 1.3122-104.38-32.893-23.039-97.559 4.096-106.27 43.299z" clip-path="url(#ap)" fill="none" filter="url(#ae)" opacity=".4" stroke="#000" stroke-dashoffset="7.8" stroke-linecap="round" stroke-linejoin="round" stroke-width="20"/>
<path transform="translate(3.8625 14.268)" d="m196.84 418.78c-0.64122 0.03724-1.2667 0.1205-1.875 0.21875-23.019 3.7175-38.443 45.463-36.375 68.688 2.0483 23.006 24.559 63.534 47.469 60.594 2.1553-0.27658 4.3268-0.83764 6.4688-1.6875 3.0876-36.535 22.777-67.593 35.219-87.156-18.083-6.9681-42.168-23.533-46.469-40.406-0.84617-0.11986-1.6606-0.21573-2.4688-0.25-0.67053-0.02844-1.3275-0.03724-1.9688 0z" clip-path="url(#ao)" fill="none" filter="url(#ad)" opacity=".4" stroke="#000" stroke-dashoffset="7.8" stroke-linecap="round" stroke-linejoin="round" stroke-width="20"/>
<path d="m143.26 497.91c27.097 53.069 79.224 126.28 175.86 125.22 96.275-1.0656 131.42-76.205 131.73-85.822 1.1369-34.392 4.7789-39.712 15.882-31.03l14.174-4.7304c-8.0032-17.797-22.016-38.044-34.602-28.889-18.6 13.529-6.9007 35.129-12.122 49.497-9.4243 25.936-46.433 88.778-129.3 81.85-84.197-7.1001-107.83-62.447-143.44-110.13-2.596-3.4767-9.0376-7.4972-13.132-6.0609-3.1972 1.1215-6.5915 7.084-5.0508 10.102z" fill="#454600" stroke="#000" stroke-dashoffset="7.8" stroke-linecap="round" stroke-linejoin="round" stroke-width="4"/>
<path transform="translate(3.8625 14.268)" d="m139.4 483.65c27.097 53.069 79.224 126.28 175.86 125.22 96.275-1.0656 131.42-76.205 131.73-85.822 1.1369-34.392 4.7789-39.712 15.882-31.03l14.174-4.7304c-8.0032-17.797-22.016-38.044-34.602-28.889-18.6 13.529-6.9007 35.129-12.122 49.497-9.4243 25.936-46.433 88.778-129.3 81.85-84.197-7.1001-107.83-62.447-143.44-110.13-2.596-3.4767-9.0376-7.4972-13.132-6.0609-3.1972 1.1215-6.5915 7.084-5.0508 10.102z" clip-path="url(#au)" fill="none" filter="url(#aj)" opacity=".5" stroke="#000" stroke-dashoffset="7.8" stroke-linecap="round" stroke-linejoin="round" stroke-width="8"/>
<path transform="translate(3.8625 14.268)" d="m442.45 458.39c-18.6 13.529-6.9007 35.129-12.122 49.497-9.4243 25.936-46.433 88.778-129.3 81.85-84.197-7.1001-107.83-62.447-143.44-110.13" clip-path="url(#av)" fill="none" filter="url(#ak)" opacity=".8" stroke="#000" stroke-dashoffset="7.8" stroke-linecap="round" stroke-linejoin="round" stroke-width="20"/>
</g>
</g>
<g transform="translate(122.21 -135.98)" display="none" stroke="#000" stroke-dashoffset="7.8" stroke-linecap="round" stroke-linejoin="round">
<path d="m447.26 399.74c-2.2385 2.5004-5.2879 3.9488-8.3232 0.1265-0.48629-4.1191 0.45101-10.284-0.8314-11.219-7.5778-4.435 6.1006-10.72 9.4662-2.6123m-17.823 17.954c0.01021-4.5828 0.38388-9.2422 0.14337-11.732-0.13821-1.4308 0.76275 6.7786-3.3471-0.93182-1.879-4.9732 6.3195-8.2479 11.679-2.2622m0.63391 12.082c-0.58799 4.2099-6.3032 4.739-9.1761 2.9537-1.9742-1.2268-4.458-4.3058-5.2563-8.5501-0.93976-4.9962-4.1692-15.482-4.5264-20.007 0.36372-8.6218 2.6521-5.466 1.2968-8.9417-4.297-11.02-15.386-11.299-24.941-37.745l-23.925-14.777 36.34-71.481c39.439-1.1774 12.594 51.167 14.05 71.039 0.72001 9.8291 0.33741 4.9608 1.8885 12.648 4.0791 2.2583 12.789 7.5175 18.11 30.88 5.8681 3.6164 6.5521 6.2294 16.61 10.839 11.585 5.3096 8.6662 12.104 7.5723 18.226-0.70164 3.9266-5.0028 8.1381-9.8594 7.3314m-9.2724-6.9452c-1.6288-2.7073-0.56568-6.9716 2.5034-7.2042 4.9791 0.70028 9.3908 1.0531 7.4836 11.39-1.3712 7.4316-5.7045 10.293-10.315 8.6576 2.2994-2.4694 1.815-6.1469 0.27428-12.728" display="inline" fill="#f1b686" stroke-width="3"/>
<path d="m459.24 377.18c-1.7965 2.3079-0.56193 4.4547-0.93124 7.3336" display="inline" fill="#f3c29b" stroke-width="3"/>
<path d="m427.27 395.95c-17.376 52.245 104.74 78.307 157.69 66.094" display="inline" fill="none" stroke-width="5"/>
<path d="m457.85 382.42c23.701 3.095 35.513 12.795 48.425 21.884" display="inline" fill="none" stroke-width="5"/>
<path d="m211.92 158.51s-11.572-26.098-27.937-22.816c-18.376 3.6854 17.472 12.993 27.937 22.816z" display="inline" fill="#fff" stroke-width="4"/>
<path d="m195.51 192.04c-15.542-7.3825-47.139-3.0071-36.086 6.5187 9.4759 8.1662 15.386-9.2055 36.086-6.5187z" display="inline" fill="#fff" stroke-width="4"/>
<path d="m196.08 225.98c-2.711-3.397-30.322-6.8533-31.095 9.2256-0.57718 12.001 19.919-12.181 31.095-9.2256z" display="inline" fill="#fff" stroke-width="4"/>
<path d="m206.93 251.24s-27.03 0.50058-26.9 11.199c0.12903 10.678 22.024-11.905 26.9-11.199z" display="inline" fill="#fff" stroke-width="4"/>
</g>
<g transform="translate(122.21 -135.98)" display="none">
<path d="m235.1 498.95c-6.6579-8.302-5.1361 5.1964 1.0153 11.452s13.782 0.20884 11.062-6.5849c-1.4266-3.5631-4.5591-4.4684-4.0954-7.2248 1.8072-10.742-6.5463-27.777-10.615-32.006 7.2958 0.54316 50.065 0.29891 82.188-9.4816 17.365 2.8254 33.29-1.5414 34.859-15.152 1.5644-13.575 9.9161-22.315 6.2612-43.003 1.1221-22.942-73.674-19.909-61.792 5.8682l4.435 16.641c-35.751-0.82343-75.889 21.262-82.97 19.641-3.2061-0.73387-3.3663-1.1166-7.0199-1.9927-9.8496-2.3618-22.493 4.3042-21.346 15.426 0.44461 4.3098 9.8269 11.949 11.598 16.753 4.6374 12.576 4.4361 22.195 8.6943 26.411 3.5172 3.4823 1.6889 7.7355 3.6373 10.92 1.6296 2.6638 4.3123 2.4661 6.2932 1.6505 4.7132-1.9406 1.6006-10.503-0.90407-11.944s4.4376 7.2285 3.182 9.0887 3.194 5.1378 7.013 3.1827c3.4266-1.7541 2.6477-8.9239-0.44949-11.677s-2.4387 2.2588 2.0392 10.29 13.572 0.04471 6.9138-8.2573z" display="inline" fill="#f3c29b"/>
</g>
<g transform="translate(122.21 -135.98)" display="none">
<path transform="translate(3.8625 14.268)" d="m228.1 482.01c0.79209 2.873-1.9931 7.8738 4.1582 14.13s13.782 0.20884 11.062-6.5849c-1.4266-3.5631-4.5591-4.4684-4.0954-7.2248 1.8072-10.742-6.5463-27.777-10.615-32.006 7.2958 0.54316 50.065 0.29891 82.188-9.4816 17.365 2.8254 33.29-1.5414 34.859-15.152 1.5644-13.575 9.9161-22.315 6.2612-43.003 1.1221-22.942-38.286-31.084-26.404-5.3067 9.9044 15.267 10.494 29.139 2.7313 37.163-12.61 1.2906-12.497 7.4369-17.387 12.304-20.767-0.4783-52.777 14.398-73.464 15.892-14.927 1.0784-31.952-8.9455-33.288-7.5563-7.0215 7.3001 9.3623 13.309 16.271 20.644 2.9708 3.1539 4.8947 15.924 7.7231 26.183z" clip-path="url(#an)" display="inline" fill="#f1b586" filter="url(#ac)"/>
</g>
<g transform="translate(122.21 -135.98)" display="none">
<path d="m236.12 510.4c6.1514 6.2559 13.782 0.20884 11.062-6.5849-1.4266-3.5631-4.5591-4.4684-4.0954-7.2248 1.8072-10.742-6.5463-27.777-10.615-32.006 7.2958 0.54316 50.065 0.29891 82.188-9.4816 17.365 2.8254 33.29-1.5414 34.859-15.152 1.5644-13.575 9.9161-22.315 6.2612-43.003 1.1221-22.942-73.674-19.909-61.792 5.8682l4.435 16.641c-35.751-0.82343-75.889 21.262-82.97 19.641-3.2061-0.73387-3.3663-1.1166-7.0199-1.9927-9.8496-2.3618-22.493 4.3042-21.346 15.426 0.44461 4.3098 9.8269 11.949 11.598 16.753 4.6374 12.576 4.4361 22.195 8.6943 26.411 3.5172 3.4823 1.6889 7.7355 3.6373 10.92 1.6296 2.6638 4.3123 2.4661 6.2932 1.6505 4.7132-1.9406 1.6006-10.503-0.90407-11.944m11.785 10.884c4.4779 8.0312 13.572 0.04471 6.9138-8.2573m-15.516 6.4619c-1.2556 1.8602 3.194 5.1378 7.013 3.1827 3.4266-1.7541 2.6477-8.9239-0.44949-11.677" display="inline" fill="none" stroke="#000" stroke-dashoffset="7.8" stroke-linecap="round" stroke-linejoin="round" stroke-width="3"/>
</g>
<g transform="translate(122.21 -135.98)" display="none">
<path d="m270.55 348.71c-8.9202 15.587 6.4234 36.705-12.347 45.6-9.5289 4.5158 14.033 12.577 32.807 9.6395 12.767-1.9973 14.361-15.425 34.104-13.976 29.253 2.1631 27.585 22.584 43.839 22.309 13.454-0.2276 19.488-13.765 26.535-13.923 2.1637-0.0484 4.787 3.743 6.782 3.1807 5.419-1.5274 10.669-8.7067 12.092-4.0299 2.2358 7.3472 3.608 0.37977 1.9022-4.6818-2.1602-6.4096-22.397-19.062-29.207-32.505-7.5092-14.825-17.989-8.8752-34.59-8.1282-25.416 1.1436-69.282-25.567-81.919-3.4862z" display="inline" fill="url(#x)"/>
</g>
<g transform="translate(122.21 -135.98)" display="none">
<path d="m270.55 348.71c-8.9202 15.587 6.4234 36.705-12.347 45.6-9.5289 4.5158 14.033 12.577 32.807 9.6395 12.767-1.9973 14.361-15.425 34.104-13.976 29.253 2.1631 27.585 22.584 43.839 22.309 13.454-0.2276 19.488-13.765 26.535-13.923 2.1637-0.0484 4.787 3.743 6.782 3.1807 5.419-1.5274 10.669-8.7067 12.092-4.0299 2.2358 7.3472 3.608 0.37977 1.9022-4.6818-2.1602-6.4096-22.397-19.062-29.207-32.505-7.5092-14.825-17.989-8.8752-34.59-8.1282-25.416 1.1436-69.282-25.567-81.919-3.4862z" display="inline" fill="url(#m)"/>
<path d="m270.55 348.71c-8.9202 15.587 6.4234 36.705-12.347 45.6-9.5289 4.5158 14.033 12.577 32.807 9.6395 12.767-1.9973 14.361-15.425 34.104-13.976 29.253 2.1631 27.585 22.584 43.839 22.309 13.454-0.2276 19.488-13.765 26.535-13.923 2.1637-0.0484 4.787 3.743 6.782 3.1807 5.419-1.5274 10.669-8.7067 12.092-4.0299 2.2358 7.3472 3.608 0.37977 1.9022-4.6818-2.1602-6.4096-22.397-19.062-29.207-32.505-7.5092-14.825-17.989-8.8752-34.59-8.1282-25.416 1.1436-69.282-25.567-81.919-3.4862z" display="inline" fill="url(#l)"/>
<path d="m270.55 348.71c-8.9202 15.587 6.4234 36.705-12.347 45.6-9.5289 4.5158 14.033 12.577 32.807 9.6395 12.767-1.9973 14.361-15.425 34.104-13.976 29.253 2.1631 27.585 22.584 43.839 22.309 13.454-0.2276 19.488-13.765 26.535-13.923 2.1637-0.0484 4.787 3.743 6.782 3.1807 5.419-1.5274 10.669-8.7067 12.092-4.0299 2.2358 7.3472 3.608 0.37977 1.9022-4.6818-2.1602-6.4096-22.397-19.062-29.207-32.505-7.5092-14.825-17.989-8.8752-34.59-8.1282-25.416 1.1436-69.282-25.567-81.919-3.4862z" display="inline" fill="url(#k)" opacity=".64621"/>
</g>
<g transform="translate(122.21 -135.98)" display="none">
<path d="m270.55 348.71c-8.9202 15.587 6.4234 36.705-12.347 45.6-9.5289 4.5158 14.033 12.577 32.807 9.6395 12.767-1.9973 14.361-15.425 34.104-13.976 29.253 2.1631 27.585 22.584 43.839 22.309 13.454-0.2276 19.488-13.765 26.535-13.923 2.1637-0.0484 4.787 3.743 6.782 3.1807 5.419-1.5274 10.669-8.7067 12.092-4.0299 2.2358 7.3472 3.608 0.37977 1.9022-4.6818-2.1602-6.4096-22.397-19.062-29.207-32.505-7.5092-14.825-17.989-8.8752-34.59-8.1282-25.416 1.1436-69.282-25.567-81.919-3.4862z" display="inline" fill="none" stroke="#000" stroke-dashoffset="7.8" stroke-linecap="round" stroke-linejoin="round" stroke-width="3"/>
</g>
<g transform="translate(122.21 -135.98)" display="none">
<path d="m342.51 238.09c7.8123 13.805 19.685 37.101 21.916 49.756l29.589 5.0585s7.3009-17.893 7.9019-19.425c3.6606-9.3356 3.3599-25.305 4.774-29.632 19.05 0.8756 40.26-15.614 46.259-22.718 12.957-9.6167 16.561-20.934 20.084-32.266 1.9318-8.1402-9.8087-15.629-16.133-23.376-4.784-12.182-3.5329-24.364-3.2924-36.546l-17.121-32.266-105.69 49.058 11.71 92.358z" display="inline" fill="#f3c29b"/>
</g>
<g transform="translate(122.21 -135.98)" display="none">
<path transform="translate(3.8625 14.268)" d="m338.65 223.82c7.8123 13.805 19.685 37.101 21.916 49.756l29.589 5.0585s7.3009-17.893 7.9019-19.425c3.6606-9.3356 3.3599-25.305 4.774-29.632 19.05 0.8756 40.26-15.614 46.259-22.718 12.957-9.6167-10.445-14.415-6.9222-25.747 2.6303-5.8121 7.8712-9.7288 5.2856-17.091-4.3321-12.335-18.898-33.444-18.658-45.626l3.8323-35.991-105.69 49.058 11.71 92.358z" clip-path="url(#al)" display="inline" fill="#f1b686" filter="url(#aa)" opacity=".8195"/>
</g>
<g transform="translate(122.21 -135.98)" display="none">
<path d="m347.65 236.34-11.336 1.0313-9.0797 46.795 39.112 6.5187-1.8625-20.953-16.834-33.392z" display="inline" fill="#f3c29b"/>
</g>
<g transform="translate(122.21 -135.98)" display="none">
<path d="m339.42 237.22c18.313 8.0131 22.89 44.745 17.156 45.054-3.2831 0.17655-15.274-2.4184-18.395-1.3859-8.576 2.8366-23.343-10.325-27.48-5.1312-6.0848 7.6405-1.1018 20.384-13.952 37.961-2.3586 3.2262-10.553 2.3279-12.353 9.7656-2.4574 10.156-15.481 16.468-19.094 18.875 14.6 23.956 81.334 29.494 93.594 25.844 14.003-4.1691 14.338 5.3852 28.188-6.5312 2.9497-2.7554-9.4472-4.9951-6.1875-17.312 0.73781-2.7879-8.4959-5.4046-5.0312-8.6875 19.192-18.185 11.904-22.482 16.25-25.625 16.084-11.632 8.8746-26.021 10.906-31.844 2.4186-6.9323 6.7402-24.013 5.1875-34.594-1.6541 0.07778-3.3133 0.06558-4.9688-0.03125 1.0602 10.209-0.91947 20.116-6.4353 29.604-2.7146 4.6698-6.3141 9.2244-11.716 9.2188-4.3105-0.00452-12.162-0.28178-14.361-3.9891-6.2968-10.615-8.7908-33.926-24.921-41.697-1.3964-0.92604-5.3276 0.01921-6.3864 0.50568z" display="inline" fill="url(#y)"/>
</g>
<g transform="translate(122.21 -135.98)" display="none">
<path d="m339.42 237.22c18.313 8.0131 22.89 44.745 17.156 45.054-3.2831 0.17655-15.274-2.4184-18.395-1.3859-8.576 2.8366-23.343-10.325-27.48-5.1312-6.0848 7.6405-1.1018 20.384-13.952 37.961-2.3586 3.2262-10.553 2.3279-12.353 9.7656-2.4574 10.156-15.481 16.468-19.094 18.875 14.6 23.956 81.334 29.494 93.594 25.844 14.003-4.1691 14.338 5.3852 28.188-6.5312 2.9497-2.7554-9.4472-4.9951-6.1875-17.312 0.73781-2.7879-8.4959-5.4046-5.0312-8.6875 19.192-18.185 11.904-22.482 16.25-25.625 16.084-11.632 8.8746-26.021 10.906-31.844 2.4186-6.9323 6.7402-24.013 5.1875-34.594-1.6541 0.07778-3.3133 0.06558-4.9688-0.03125 1.0602 10.209-0.91947 20.116-6.4353 29.604-2.7146 4.6698-6.3141 9.2244-11.716 9.2188-4.3105-0.00452-12.162-0.28178-14.361-3.9891-6.2968-10.615-8.7908-33.926-24.921-41.697-1.3964-0.92604-5.3276 0.01921-6.3864 0.50568z" display="inline" fill="none" stroke="#000" stroke-dashoffset="7.8" stroke-linecap="round" stroke-linejoin="round" stroke-width="3"/>
</g>
<g transform="translate(122.21 -135.98)" display="none">
<path d="m466.11 204.3c-2.891 4.8612-10.15 15.485-34.34 32.826-27.318 13.391-29.761-38.153-11.873-38.414 22.563-0.32906 34.841-12.126 37.715-13.969 11.306-7.2492 10.072 12.39 8.4976 19.556z" display="inline" fill="#d35245"/>
<path d="m407.56 219.66c10.923-24.159 43.399-7.6852 49.062-1.9836-3.302 5.3379-13.973 12.453-24.738 19.748-4.6696 0.36764-17.977 7.6637-24.324-17.764z" display="inline" fill="#f8a89c"/>
<path d="m431.77 237.12c-27.318 13.391-29.761-39.084-11.873-39.345 22.563-0.32906 34.841-12.126 37.715-13.969 11.306-7.2492 10.072 13.322 8.4976 20.487" display="inline" fill="none" stroke="#000" stroke-dashoffset="7.8" stroke-linecap="round" stroke-linejoin="round" stroke-width="3"/>
</g>
<g transform="translate(122.21 -135.98)" display="none">
<path d="m385.13 238.58c33.065 17.226 72.57-12.31 85.275-42.802 7.154-17.17-9.3801-23.154-13.17-29.303-7.0285-11.404-4.2802-44.448-4.2802-44.448" display="inline" fill="none" stroke="#000" stroke-dashoffset="7.8" stroke-linecap="round" stroke-linejoin="round" stroke-width="3"/>
<path d="m428.96 152.05c-2.9112-0.16236-5.7582 0.85657-8.25 2.75-6.6448 5.0491-11.43 15.994-13 29.312-0.11482 0.55593 0.18699 1.8073 1.198 2.1393 2.8003 0.91966 5.2476-1.9265 5.2629-2.494 1.867-20.568 17.053-36.669 26.102-19.208 0.24267 0.51801 0.75881 0.85293 1.3308 0.86351 0.57194 0.01057 1.1001-0.30504 1.3618-0.81374 0.26164-0.50869 0.21122-1.1219-0.13001-1.581-3.3926-5.6859-7.0784-9.094-10.969-10.406-0.97258-0.32806-1.9358-0.50838-2.9062-0.5625z" display="inline"/>
<path d="m451.01 142.14c-0.2849 0.0275-0.55598 0.13594-0.78125 0.3125-0.63815 0.45796-2.2961 1.3373-3.1875 3.4375s-1.6732 8.6574-0.67578 13.867c0.0619 0.56098 0.68536 1.5955 1.7846 1.4859 1.7511-0.17453 1.5496-1.2985 1.3998-1.8427-1.0372-3.2232-1.4113-10.288 1.2491-11.691 0.86246-0.45496 0.48596-0.03796 1.4878-0.75695 0.58021-0.3775 0.86796-1.885 0.63797-2.5378-0.23-0.65289-1.2261-2.3441-1.9148-2.2746z" display="inline"/>
<path d="m396.38 181.95 7.9156-1.1641" display="inline" fill="none" stroke="#000" stroke-dashoffset="7.8" stroke-linecap="round" stroke-linejoin="round" stroke-width="3"/>
<path d="m399.88 190.79 6.5187-3.4922" display="inline" fill="none" stroke="#000" stroke-dashoffset="7.8" stroke-linecap="round" stroke-linejoin="round" stroke-width="3"/>
<path d="m408.46 216.12c7.8974-17.776 43.674-7.3344 47.531 0.45634" display="inline" fill="none" stroke="#000" stroke-dashoffset="7.8" stroke-linecap="round" stroke-linejoin="round" stroke-width="3"/>
</g>
<g transform="translate(122.21 -135.98)" display="none">
<path d="m274.83 308.71c-4.4692 15.044 22.901 2.871 13.828-11.194-5.9638-9.9126-24.646-12.943-5.5972-31.937-8.6613 2.9495-16.58 8.6571-16.133 22.059-10.718-10.23-9.4676-22.418-17.45-34.9-14.977-23.42 8.731-30.248 14.487-48.728-18.876 24.464-30.238 22.409-29.632 44.777-9.8875-22.738-4.6328-57.707 23.047-73.092-19.215 10.012-28.341 5.9149-28.974-3.951 1.2057 16.074 35.031-9.9801 44.777-25.681 8.7281-14.06 2.7457-26.781 21.73-50.704-5.0011 9.7451-35.429 4.639-29.632-1.9755 3.3402 4.2256 27.312-4.8888 31.472-13.463 4.7753-9.8431 21.852-2.1066 27.753-6.684 7.4155-5.7523 0.9677-12.377 16.502-23.972-5.2458 12.589-5.7418 16.702-0.65849 19.755 7.4093 4.45 10.699-6.5243 14.6-13.436 6.9919-12.388 35.052-2.0929 49.274-2.3681 15.032-0.29086 39.818-7.8693 53.072-0.77147 15.824 8.4744 25.718 20.292 35.698 37.918 8.2542 14.577 6.3599 40.005-19.129 58.039 2.7192-45.928-10.495-43.419-8.4011-42.506 4.8477 2.1127 9.2234 35.435-6.8217 50.205-0.96964-22.467-5.0585-26.14-12.547-33.823-3.3274-2.9053-6.4492-3.2527-12.239-5.188-1.4831 3.8199-1.0985 25.732-11.394 26.765 1.436-9.1689-4.2309-24.551-15.804-25.023-5.8587-0.23893-4.7886 3.7775-2.1546 5.7529 2.634 1.9755 10.34 25.847-4.8959 42.842-1.8934-9.8996-3.2547-16.118-10.529-18.73-4.9029-1.7606-4.553 7.3784-5.8865 15.917-2.1147 13.541 13.26 21.638 11.62 39.695-0.20367 2.2432-5.8577 3.8646-6.392 1.6765-2.3963-9.8134-6.6613-46.699-26.798-32.592-14.773 10.348 8.1387 43.53 22.342 39.058 2.1318-0.67128 0.20105 5.3569-1.9492 5.9664-3.3812 0.95839-11.204 3.4186-13.391 5.22-7.8361 6.4562-15.292 10.817-17.488 11.165-13.543 2.1488-52.676-12.096-34.445 23.961 4.0953 8.0996-8.7632 16.073-9.3189 21.698-2.2507 15.453-7.1569 29.841-14.086 32.796-10.985 4.6844-9.7658 10.678-10.835 10.394-4.7111-1.2517-11.416-8.9113-7.6207-14.942z" display="inline" stroke="#000" stroke-dashoffset="7.8" stroke-linecap="round" stroke-linejoin="round" stroke-width="3"/>
</g>
<g transform="translate(122.21 -135.98)" display="none">
<path d="m672.5 2.9346c-67.357-85.504 51.63-99.604-9.3125-209.53 12.417 3.6691 29.024 13.313 41.44 36.319 9.9931-6.4499 11.701-22.546 11.158-33.21 15.411 12.359 23.331 34.449 17.724 44.473 21.352-8.7365 29.391-22.987 27.711-33.668 28.633 17.344 15.828 31.615 1.0997 44.258 20.413-3.8349 30.373-9.8015 37.715-20.953 14.867 18.955-0.3876 29.253-8.6701 39.981 22.055-3.4871 31.234-15.253 36.736-29.508 14.523 19.33 7.6619 29.64-8.2123 48.171 24.209-4.1657 41.657-20.415 44.234-30.452 12.012 23.109 8.4653 37.222-35.347 70.08-16.519 12.389-9.9612 36.655-23.507 58.129-14.171 22.465-53.925 45.691-89.933 41.054l-42.837-25.144z" display="inline" fill="url(#u)"/>
</g>
<g transform="translate(122.21 -135.98)" display="none">
<path d="m698.17-161.22c2.017 38.062-35.308 85.175-27.657 131.7-1.1328-41.151 18.536-65.971 22.389-85.604 3.8094-19.41 12.768-30.547 5.2679-46.094z" display="inline" fill="url(#r)"/>
<path d="m726.07-161.9c-1.9027 42.358-47.8 90.438-44.455 142.78 3.203-45.682 27.388-71.01 33.72-92.324 6.2604-21.072 17.257-32.423 10.735-50.455z" display="inline" fill="url(#q)"/>
<path d="m791.38-137.13c-7.8623 40.901-60.564 81.203-64.578 132.54 9.6313-43.949 37.401-65.179 46.737-85.007 9.23-19.603 21.834-29.095 17.842-47.533z" display="inline" fill="url(#p)"/>
<path d="m766.95-160.99c-6.9596 45.231-63.964 91.692-66.169 148.22 8.7979-48.651 38.835-73.126 48.371-95.286 9.4282-21.909 23.067-32.859 17.798-52.932z" display="inline" fill="url(#o)"/>
<path d="m822.44-117.68c-9.2557 36.974-58.776 71.041-65.133 117.76 11.009-39.668 37.101-57.612 46.553-75.247 9.3445-17.434 21.179-25.447 18.579-42.512z" display="inline" fill="url(#n)"/>
</g>
<g transform="translate(122.21 -135.98)" display="none" stroke-dashoffset="7.8" stroke-linecap="round" stroke-linejoin="round">
<path d="m672.5 2.9346c-67.357-85.504 51.63-99.604-9.3125-209.53 12.417 3.6691 29.024 13.313 41.44 36.319 9.9931-6.4499 11.701-22.546 11.158-33.21 15.411 12.359 23.331 34.449 17.724 44.473 21.352-8.7365 29.391-22.987 27.711-33.668 28.633 17.344 15.828 31.615 1.0997 44.258 20.413-3.8349 30.373-9.8015 37.715-20.953 14.867 18.955-0.3876 29.253-8.6701 39.981 22.055-3.4871 31.234-15.253 36.736-29.508 14.523 19.33 7.6619 29.64-8.2123 48.171 24.209-4.1657 41.657-20.415 44.234-30.452 12.012 23.109 8.4653 37.222-35.347 70.08-16.519 12.389-9.9612 36.655-23.507 58.129-14.171 22.465-53.925 45.691-89.933 41.054l-42.837-25.144z" display="inline" fill="none" stroke="url(#v)" stroke-width="4"/>
<path transform="matrix(.73315 .38231 -.40009 .6918 185.3 -242.68)" d="m718.41-3.2105a29.961 17.381 0 1 1-59.923 0 29.961 17.381 0 1 1 59.923 0z" display="inline" fill="url(#j)" stroke="#452a08" stroke-width="4.9231"/>
<path d="m679.32 14.59-317.81 453.88c-1.7348 6.6879 12.62 13.436 19.924 10.528l317.73-453.77c3.174-4.533-10.438-16.67-19.847-10.638z" display="inline" fill="url(#w)" stroke="#4c3419" stroke-width="4"/>
<path d="m671.73-105.97c55.912 34.61 123.4 26.136 140.88 76.317-3.4022 9.8774-6.4923 20.025-22.506 32.972-6.1705-38.388-80.161-45.414-134.49-74.409 4.6958-12.392 11.077-23.836 16.115-34.88z" display="inline" fill="url(#t)" stroke="url(#s)" stroke-width="4"/>
</g>
<g transform="translate(122.21 -135.98)" display="none">
<path d="m679.32 14.59-317.81 453.88c-1.7348 6.6879 12.62 13.436 19.924 10.528l317.73-453.77c3.174-4.533-10.438-16.67-19.847-10.638z" display="inline" fill="none" stroke="#452a08" stroke-dashoffset="7.8" stroke-linecap="round" stroke-linejoin="round" stroke-width="4"/>
</g>
<g transform="translate(122.21 -135.98)" display="none">
<path d="m480.93 310.72c18.881 4.4781 17.96 8.2574 18.468 10.843 0.41308 2.1036-0.80763 5.6894-3.7413 6.4542-2.7002 0.704-9.4275-7.415-15.784-6.0154-1.4022 0.30871 11.75 2.496 13.023 6.6562 0.70965 2.3189-0.44917 4.877-2.0291 6.4792-2.5832 2.6196-10.554-3.0393-16.041-2.1379-14.304 2.3499-22.498-3.7466-22.498-3.7466-11.745 4.8951-65.005 9.4429-77.441 3.6571-21.683-1.9201-39.099-26.574-53.111-40.998-2.7133-2.7931-16.725-21.472-19.315-34.352-2.0624-10.255 1.9395-15.94 3.5171-17.688 11.822-13.093 19.86-3.7642 32.511-2.8825-2.2472 7.7959-4.4633 20.459 5.142 26.552s28.912 27.324 39.818 39.198c21.675-4.9724 52.86 3.5124 64.941 6.2549 4.5453 1.0318 2.5852-4.6821 8.03-8.5379 22.032-4.678 20.109-16.262 28.636-5.6716-1.492 1.7945-6.6953 7.8105-4.347 6.5896 4.418-2.2968 19.684 4.8854 23.511 9.8664 2.5999 3.3843-1.8792 11.316-5.4953 7.7966" display="inline" fill="#f3c29b"/>
</g>
<g transform="translate(122.21 -135.98)" display="none">
<path transform="translate(3.8625 14.268)" d="m477.06 296.45c18.881 4.4781 17.96 8.2574 18.468 10.843 0.41308 2.1036-0.80763 5.6894-3.7413 6.4542-2.7002 0.704-9.4275-7.415-15.784-6.0154-1.4022 0.30871 11.75 2.496 13.023 6.6562 0.70965 2.3189-0.44917 4.877-2.0291 6.4792-2.5832 2.6196-10.554-3.0393-16.041-2.1379-14.304 2.3499-22.498-3.7466-22.498-3.7466-11.745 4.8951-65.005 9.4429-77.441 3.6571-21.683-1.9201-18.083-19.589-32.095-34.013-2.7133-2.7931-15.28-20.66-17.878-33.539-0.81787-4.0531 1.5517-15.993 5.9672-17.535 7.7544-2.7078 7.0258-2.5188 14.672-1.9859 3.6739 6.6065 4.3892 8.177 6.9158 16.905 2.1448 3.7902 0.96538 8.6389 2.7476 11.267 9.9552 9.9207 25.371 26.833 32.439 34.529 37.972-3.5755 49.76 3.5641 61.841 6.3066 4.5453 1.0318 8.9276-7.9697 14.372-11.826 15.979-4.9108 12.194-15.331 21.186-8.2325-1.492 1.7945-6.6953 7.8105-4.347 6.5896 4.418-2.2968 19.684 4.8854 23.511 9.8664 2.5999 3.3843-1.8792 11.316-5.4953 7.7966" clip-path="url(#am)" display="inline" fill="#f1b686" filter="url(#ab)"/>
</g>
<g transform="translate(122.21 -135.98)" display="none">
<path d="m498.72 319.03c3.6161 3.5196 8.0952-4.4122 5.4953-7.7966-3.8265-4.981-19.093-12.163-23.511-9.8664-2.3483 1.2209 3.5534-5.2607 5.0454-7.0552-8.5265-10.591-7.302 1.4592-29.334 6.1372-5.4448 3.8558-3.4846 9.5697-8.03 8.5379-12.081-2.7425-43.266-11.227-64.941-6.2549-10.906-11.874-30.212-33.105-39.818-39.198m-5.142-26.552c-12.651-0.88171-20.69-10.21-32.511 2.8825-1.5776 1.7472-5.5795 7.4321-3.5171 17.688 2.5901 12.88 16.602 31.559 19.315 34.352 14.012 14.424 31.428 39.077 53.111 40.998 12.436 5.7858 65.696 1.238 77.441-3.6571 0 0 8.1938 6.0965 22.498 3.7466 5.4865-0.90132 13.458 4.7575 16.041 2.1379 1.5799-1.6022 2.7387-4.1604 2.0291-6.4792-1.2732-4.1602-14.425-6.3475-13.023-6.6562 6.3565-1.3995 13.084 6.7194 15.784 6.0154 2.9337-0.76488 4.1544-4.3506 3.7413-6.4542-0.50769-2.5855 0.41319-6.3648-18.468-10.843" display="inline" fill="none" stroke="#000" stroke-dashoffset="7.8" stroke-linecap="round" stroke-linejoin="round" stroke-width="3"/>
</g>
</svg>
